<?xml version="1.0" encoding="utf-8"?>
<!-- Generator: Adobe Illustrator 16.0.0, SVG Export Plug-In . SVG Version: 6.00 Build 0)  -->
<!DOCTYPE svg PUBLIC "-//W3C//DTD SVG 1.1//EN" "http://www.w3.org/Graphics/SVG/1.1/DTD/svg11.dtd">
<svg version="1.1" id="Layer_1" xmlns="http://www.w3.org/2000/svg" xmlns:xlink="http://www.w3.org/1999/xlink" x="0px" y="0px"
	 width="336px" height="336px" viewBox="0 0 336 336" enable-background="new 0 0 336 336" xml:space="preserve">
<g>
	<g>
		<defs>
			<circle id="SVGID_1_" cx="168" cy="168" r="156.451"/>
		</defs>
		<clipPath id="SVGID_2_">
			<use xlink:href="#SVGID_1_"  overflow="visible"/>
		</clipPath>
		<circle clip-path="url(#SVGID_2_)" fill-rule="evenodd" clip-rule="evenodd" fill="#10233D" cx="168" cy="168" r="156.451"/>
		<path clip-path="url(#SVGID_2_)" fill-rule="evenodd" clip-rule="evenodd" fill="#24344C" d="M93.836,43.369h64.61v49.076h14.349
			l4.839,4.389l3.604,0.785l0.785,1.802l15.223-0.027l2.813,2.752l13.65,0.061l2.346,0.939l12.305-0.061l0.352,0.643h9.844v-0.582
			l3.922-2.406h15.354l0.939,1.406h1.461l0.648,1.352h5.037l5.74,2.752h7.91l0.709,1.28v1.779h0.977v2.621h-1.086v1.917h1.115v2.537
			h0.834v19.628h0.527v2.587h1.088v9.69c0,0,5.113,23.682,5.01,33.723c-0.105,10.035,1.291,18.402,1.34,19.715
			s0.1,3.064-1.895,3.455s-7.828,2.043-8.51,3.109c-0.68,1.07-2.725,2.625-2.965,3.746c-0.248,1.115-0.248,1.264-0.973,2.576
			c-0.73,1.313-2.242,1.994-3.746,3.742c-1.506,1.752-2.918,2.043-3.891,2.773s-3.016,2.725-3.549,3.598
			c-0.537,0.873-2.482,1.752-2.773,2.186c-0.291,0.439-0.049,1.023-0.922,1.561c-0.875,0.533-1.264,0.582-1.555,1.313
			c-0.291,0.727-3.6,1.748-4.279,2.721c-0.682,0.971-0.193,1.219-1.752,1.553c-1.555,0.342-2.43-0.334-2.627,0.588
			c-0.191,0.924-0.682,1.457-1.313,1.896s-0.924,0.631-1.746,1.361c-0.83,0.73-0.682,1.313-2.094,1.406
			c-1.412,0.1-2.043-0.043-2.867,0.73c-0.83,0.781-11.932,16.211-13.678,18.42c-1.748,2.207-3.494,3.955-3.648,4.465
			c-0.152,0.518-1.236,1.594-1.439,1.697c-0.203,0.105,0,0.979-0.564,1.385c-0.566,0.412-0.924-0.1-1.285,0.67
			c-0.357,0.77-1.027,1.285-1.182,2.258c-0.154,0.979-0.566,3.443-0.357,4.164c0.203,0.719,1.643,1.439,1.643,1.439
			s-0.049,2.719-0.049,3.955c0,1.23,0.461,4.982,0.406,5.959c-0.049,0.973-0.615,0.408,0.467,2.566
			c1.076,2.158,0.252,1.334,0.461,3.34c0.203,2.004,0.664,2.207,0.818,3.137c0.154,0.922,0.154,2.055,0.154,2.873
			c0,0.824,1.391,1.439,0.873,2.055c-0.51,0.619-1.385,0.977-1.385,1.746c0,0.775,0.309,1.594-0.361,1.746
			c-0.666,0.154-1.127-0.203-2,0.363s1.182,0.512-2.676,0.664c-3.85,0.154,0.43-1.236-7.168-3.955
			c-7.602-2.719-19.363-2.559-21.842-2.719c-2.482-0.158-5.24,0-5.24,0l-1.119-1.482l-2.721-0.318l-0.643-1.518l-1.24,0.115
			l0.164-2.037l-0.884-1l0.044-1.521l-2.082-0.439l-0.363-1.961l-2.279-0.6l0.045-2.961l-0.605-0.719c0,0-0.236-6.158-0.236-6.4
			c0-0.24-2.801-8.641-2.801-8.641s-2.28-3.158-3.643-4.398c-1.356-1.242-2.438-2.242-2.955-3.318
			c-0.521-1.082-3.604-4.604-3.604-4.604l-6.521-9.277l-1-3.479l-1.999-0.482l-0.599-1.918l-1.038-0.279l-0.522-1.643
			c0,0-3.279-5.922-3.96-7.598c-0.682-1.68-2.362-3.043-2.84-5.361c-0.479-2.324-21.242-17.221-25.021-18.572s-6.889,3.5-6.889,3.5
			l-2.153-0.166l-1.565,1.521l-1.308,3.17l-0.89,0.039c0,0-2.62,2.834-2.62,5.328s-0.044,4.268-0.044,4.268l-1.687-0.379
			l-1.357,2.746l-1.856,1.857l-2.708,0.215l-1.561,0.713l-9.217,0.133c0,0-5.197-3.258-6.378-5.031
			c-1.187-1.775-1.396-1.73-3.131-2.873c-1.73-1.143-3.252-2.324-4.478-3.17c-1.225-0.846-2.114-1.016-3.043-2.033
			c-0.929-1.01-1.691-2.449-2.241-3.592c-0.549-1.137-2.62-5.449-2.538-6.377c0.088-0.936,0.594-4.313-0.291-5.834
			c-0.89-1.521-1.988-5.324-2.538-6.422c-0.549-1.104-1.016-3.213-3.801-5.328c-2.791-2.115-3.087-3.127-6.598-4.773
			c-3.504-1.648-5.196-4.482-7.734-6.598c-2.532-2.109-2.323-1.9-4.438-3.506c-2.109-1.609-12.897-13.519-12.897-13.519l0.121-9.959
			h71.125l0.648-106.057"/>
		<path clip-path="url(#SVGID_2_)" fill-rule="evenodd" clip-rule="evenodd" fill="#A5A6A6" d="M135.545,107.391h6.34l-0.242,7.07
			h-22.824v-8.515h2.84l2.533-63.342c0,0,1.39-9.481-6.4-12.02l18.902-5.19l30.125,70.752l29.163-71.461
			c0,0,6.395,0.379,21.313,5.351v0.533c0,0-7.629-1.209-7.432,5.355l1.879,65.792c0,0-0.482,4.587,4.637,5.218l7.816,0.527
			l-0.385,6.757l-35.838,0.143l0.072-6.19c0,0,9.502,0.506,9.574-5.834l-1.297-60.26c0,0-3.092,8.783-6.838,20.089
			c-3.746,11.299-21.171,51.262-21.171,51.262l-6.982,2.159l-17.353-39.601l-11.141-29.553l-0.434,26.564l-1.494,34.492
			L135.545,107.391z M168.769,209.912l11.129-0.73c0,0-0.34,2.846,1.818,9.189s30.553,80.008,30.553,80.008s1.533,6.752,11.881,5.67
			c0,0-11.551,6.359-25.773,7.799l-15.654,0.209v-7.273c0,0,5.162-0.273,6.914-0.516c1.748-0.242,4.527-0.906,3.836-3.322
			c-0.699-2.412-8.619-24.434-8.619-24.434H151.79l-9.597,23.4c0,0-1.561,3.355,2.219,3.779l9.778,0.9v7.438l-16.32-0.061
			c0,0-13.678-1.68-23.456-7.322c0,0,9.778,0.545,13.14-4.377c0,0,5.098-8.641,10.86-21.479
			c5.757-12.844,23.637-50.521,25.917-56.883C166.61,215.546,168.769,209.912,168.769,209.912z M169.609,230.697l12.42,35.859
			h-27.037L169.609,230.697z"/>
		<path clip-path="url(#SVGID_2_)" fill-rule="evenodd" clip-rule="evenodd" fill="#FEFEFE" d="M102.115,97.503
			c0,0,5.916,5.769,15.952,0.077c10.036-5.69,12.354-23.741,7.563-29.954c-4.795-6.219-14.82-8.789-25.313-2.774
			c-7.756,4.45-10.865,18.216-11.826,26.258c-0.962,8.036-3.961,29.399-11.283,41.518c-7.317,12.123-17.04,18.721-17.04,18.721
			s13.546-1.396,31.504,4.751c15.221,5.213,35.216,8.245,49.054-1.115c0,0-8.772-14.122,1.308-27.734
			c10.08-13.606,21.527-19.149,40.249-19.436c18.721-0.291,29.014,4.752,36.002,10.509c0,0,4.389,2.521,1.652,6.339
			c-2.734,3.813-12.381,13.102-12.381,13.102s-1.088,1.368-3.527,0.143c-1.152-0.576-1.801-1.867-2.016-4.751
			c-0.219-2.879-2.164-12.025-12.025-16.343c-9.865-4.323-18.791-3.384-26.355,1.944c-7.559,5.329-7.772,16.343-0.791,23.039
			c6.987,6.696,14.112,12.602,22.896,18.721c8.783,6.119,18,14.476,20.879,22.825c2.885,8.35,0.867,19.006-7.053,25.922
			c-7.922,6.91-13.646,14.396-36.36,17.566c-25.273,3.527-44.571-5.186-50.399-10.947c0,0-2.735-2.664-3.313-3.598
			s-1.368-1.945,0.357-4.609c1.73-2.664,8.498-13.172,12.601-15.984c0,0,6.191-3.527,7.922,5.398
			c1.73,8.932,3.455,23.693,23.687,23.906c20.231,0.215,30.674-11.59,30.098-20.016c-0.578-8.422-5.834-11.877-12.097-17.277
			c-7.339-6.334-15.194-9.938-26.493-21.819c0,0-20.243,14.339-43.924,15.046c-23.978,0.727-43.489-10.799-54.432-12.096
			c0,0-11.233,11.449-23.83,12.316c-12.601,0.861-19.439-10.152-1.367-19.875c0,0,5.037-3.093,19.94-5.108
			c0,0,6.768-5.763,8.497-14.112c1.73-8.354,1.654-10.442,2.665-22.324c1.005-11.876,5.833-31.536,22.752-45.429
			c0,0,13.321-13.684,37.15-15.051c0,0,26.571-2.736,35.426,19.66c0,0,4.537,18.215-11.811,31.821c0,0-8.563,7.922-22.247,7.702
			C97.605,114.17,100.027,99.234,102.115,97.503z M257.511,189.103c0,0,3.213,7.246,12.842,3.461
			c9.637-3.791,14.992-14.25,15.238-24.868c0.088-3.961-2.295-15.76-15.732-13.426c-11.359,1.978-22.23,13.59-28.486,25.528
			c0,0-9.141,15.148-10.295,31.783c-1.154,16.633,8.398,36.809,30.547,39.852c22.154,3.049,32.691-4.689,45.951-16.385l-0.246,9.799
			c0,0-19.602,18.529-52.785,18.941c0,0-30.713,0.658-44.379-20.584c-2.912-4.531-11.574-15.748-2.934-44.725
			c1.934-6.482,10.02-30.334,42.061-44.974c0,0,29.879-14.276,48.121,2.643c0,0,13.047,9.569,3.779,31.263
			c0,0-8.191,21.055-30.783,21.055C247.822,208.466,251.66,192.343,257.511,189.103z"/>
	</g>
</g>
</svg>
